HIERARCHY
ROOT Root
{
  OFFSET 0.0 0.0 0.0
  CHANNELS 6 Xposition Yposition Zposition Zrotation Yrotation Xrotation
  JOINT Hips
  {
    OFFSET 0.0 100.0 0.0
    CHANNELS 6 Xposition Yposition Zposition Zrotation Yrotation Xrotation
    JOINT Spine1
    {
      OFFSET -0.013727 5.003763 -0.053727
      CHANNELS 3 Zrotation Yrotation Xrotation
      JOINT Spine2
      {
        OFFSET -0.0 7.125301 -0.029825
        CHANNELS 3 Zrotation Yrotation Xrotation
        JOINT Chest
        {
          OFFSET -1e-06 7.550063 -0.815971
          CHANNELS 3 Zrotation Yrotation Xrotation
          JOINT Neck1
          {
            OFFSET -0.181677 26.311295 -0.553348
            CHANNELS 3 Zrotation Yrotation Xrotation
            JOINT Neck2
            {
              OFFSET -3e-06 7.709397 2.302585
              CHANNELS 3 Zrotation Yrotation Xrotation
              JOINT Head
              {
                OFFSET -5e-06 6.128916 1.953709
                CHANNELS 3 Zrotation Yrotation Xrotation
                JOINT HeadEnd
                {
                  OFFSET 0.003598 16.065403 -1.835379
                  CHANNELS 3 Zrotation Yrotation Xrotation
                }
                JOINT Jaw
                {
                  OFFSET 0.002637 0.475592 3.094941
                  CHANNELS 3 Zrotation Yrotation Xrotation
                }
                JOINT LeftEye
                {
                  OFFSET 3.206381 5.380205 7.586883
                  CHANNELS 3 Zrotation Yrotation Xrotation
                }
                JOINT RightEye
                {
                  OFFSET -3.22244 5.361869 7.558234
                  CHANNELS 3 Zrotation Yrotation Xrotation
                }
              }
            }
          }
          JOINT LeftShoulder
          {
            OFFSET 1.621652 23.237164 5.113413
            CHANNELS 3 Zrotation Yrotation Xrotation
            JOINT LeftArm
            {
              OFFSET 14.919846 2e-06 -5.502326
              CHANNELS 3 Zrotation Yrotation Xrotation
              JOINT LeftForeArm
              {
                OFFSET 28.739307 0.0 -0.002588
                CHANNELS 3 Zrotation Yrotation Xrotation
                JOINT LeftHand
                {
                  OFFSET 27.093981 -1e-06 0.002609
                  CHANNELS 3 Zrotation Yrotation Xrotation
                  JOINT LeftHandThumb1
                  {
                    OFFSET 2.276482 -1.392045 3.191413
                    CHANNELS 3 Zrotation Yrotation Xrotation
                    JOINT LeftHandThumb2
                    {
                      OFFSET 4.012836 -1.828127 1.641654
                      CHANNELS 3 Zrotation Yrotation Xrotation
                      JOINT LeftHandThumb3
                      {
                        OFFSET 2.798515 0.0 -3e-06
                        CHANNELS 3 Zrotation Yrotation Xrotation
                        JOINT LeftHandThumbEnd
                        {
                          OFFSET 3.180793 -4e-06 4e-06
                          CHANNELS 3 Zrotation Yrotation Xrotation
                        }
                      }
                    }
                  }
                  JOINT LeftHandIndex1
                  {
                    OFFSET 3.247555 -0.531998 2.296169
                    CHANNELS 3 Zrotation Yrotation Xrotation
                    JOINT LeftHandIndex2
                    {
                      OFFSET 6.364578 0.01206 0.1786
                      CHANNELS 3 Zrotation Yrotation Xrotation
                      JOINT LeftHandIndex3
                      {
                        OFFSET 3.662364 0.0 0.0
                        CHANNELS 3 Zrotation Yrotation Xrotation
                        JOINT LeftHandIndex4
                        {
                          OFFSET 2.329242 4e-06 4e-06
                          CHANNELS 3 Zrotation Yrotation Xrotation
                          JOINT LeftHandIndexEnd
                          {
                            OFFSET 2.759615 -0.180537 -0.113024
                            CHANNELS 3 Zrotation Yrotation Xrotation
                          }
                        }
                      }
                    }
                  }
                  JOINT LeftHandMiddle1
                  {
                    OFFSET 3.163495 0.240981 1.000332
                    CHANNELS 3 Zrotation Yrotation Xrotation
                    JOINT LeftHandMiddle2
                    {
                      OFFSET 6.19078 -0.259278 -1.002548
                      CHANNELS 3 Zrotation Yrotation Xrotation
                      JOINT LeftHandMiddle3
                      {
                        OFFSET 4.35652 -4e-06 -1e-06
                        CHANNELS 3 Zrotation Yrotation Xrotation
                        JOINT LeftHandMiddle4
                        {
                          OFFSET 2.996877 -8e-06 0.0
                          CHANNELS 3 Zrotation Yrotation Xrotation
                          JOINT LeftHandMiddleEnd
                          {
                            OFFSET 2.304287 -0.294569 -0.031741
                            CHANNELS 3 Zrotation Yrotation Xrotation
                          }
                        }
                      }
                    }
                  }
                  JOINT LeftHandRing1
                  {
                    OFFSET 2.882643 -0.053652 -0.322543
                    CHANNELS 3 Zrotation Yrotation Xrotation
                    JOINT LeftHandRing2
                    {
                      OFFSET 5.854541 -0.486202 -1.373841
                      CHANNELS 3 Zrotation Yrotation Xrotation
                      JOINT LeftHandRing3
                      {
                        OFFSET 4.350578 0.0 3e-06
                        CHANNELS 3 Zrotation Yrotation Xrotation
                        JOINT LeftHandRing4
                        {
                          OFFSET 2.651321 7e-06 2e-06
                          CHANNELS 3 Zrotation Yrotation Xrotation
                          JOINT LeftHandRingEnd
                          {
                            OFFSET 1.936105 0.077687 -7.1e-05
                            CHANNELS 3 Zrotation Yrotation Xrotation
                          }
                        }
                      }
                    }
                  }
                  JOINT LeftHandPinky1
                  {
                    OFFSET 2.8655 -0.310005 -1.600378
                    CHANNELS 3 Zrotation Yrotation Xrotation
                    JOINT LeftHandPinky2
                    {
                      OFFSET 5.087849 -1.331141 -1.77123
                      CHANNELS 3 Zrotation Yrotation Xrotation
                      JOINT LeftHandPinky3
                      {
                        OFFSET 3.070974 4e-06 0.0
                        CHANNELS 3 Zrotation Yrotation Xrotation
                        JOINT LeftHandPinky4
                        {
                          OFFSET 1.549672 0.0 1e-06
                          CHANNELS 3 Zrotation Yrotation Xrotation
                          JOINT LeftHandPinkyEnd
                          {
                            OFFSET 1.944893 -0.157802 0.057219
                            CHANNELS 3 Zrotation Yrotation Xrotation
                          }
                        }
                      }
                    }
                  }
                }
              }
            }
          }
          JOINT RightShoulder
          {
            OFFSET -1.380118 23.180309 5.214158
            CHANNELS 3 Zrotation Yrotation Xrotation
            JOINT RightArm
            {
              OFFSET -15.037196 1.2e-05 -5.545604
              CHANNELS 3 Zrotation Yrotation Xrotation
              JOINT RightForeArm
              {
                OFFSET -28.736639 2e-06 -0.002597
                CHANNELS 3 Zrotation Yrotation Xrotation
                JOINT RightHand
                {
                  OFFSET -27.133619 -0.0 0.002613
                  CHANNELS 3 Zrotation Yrotation Xrotation
                  JOINT RightHandThumb1
                  {
                    OFFSET -2.274032 -1.383988 3.163127
                    CHANNELS 3 Zrotation Yrotation Xrotation
                    JOINT RightHandThumb2
                    {
                      OFFSET -4.011429 -1.827466 1.640914
                      CHANNELS 3 Zrotation Yrotation Xrotation
                      JOINT RightHandThumb3
                      {
                        OFFSET -2.794935 -4e-06 -3e-06
                        CHANNELS 3 Zrotation Yrotation Xrotation
                        JOINT RightHandThumbEnd
                        {
                          OFFSET -3.183852 4e-06 1e-06
                          CHANNELS 3 Zrotation Yrotation Xrotation
                        }
                      }
                    }
                  }
                  JOINT RightHandIndex1
                  {
                    OFFSET -3.253266 -0.520057 2.282866
                    CHANNELS 3 Zrotation Yrotation Xrotation
                    JOINT RightHandIndex2
                    {
                      OFFSET -6.341917 0.012471 0.178266
                      CHANNELS 3 Zrotation Yrotation Xrotation
                      JOINT RightHandIndex3
                      {
                        OFFSET -3.654871 -8e-06 -0.0
                        CHANNELS 3 Zrotation Yrotation Xrotation
                        JOINT RightHandIndex4
                        {
                          OFFSET -2.327586 0.0 1e-06
                          CHANNELS 3 Zrotation Yrotation Xrotation
                          JOINT RightHandIndexEnd
                          {
                            OFFSET -2.76179 -0.180656 -0.113078
                            CHANNELS 3 Zrotation Yrotation Xrotation
                          }
                        }
                      }
                    }
                  }
                  JOINT RightHandMiddle1
                  {
                    OFFSET -3.168106 0.246593 1.00103
                    CHANNELS 3 Zrotation Yrotation Xrotation
                    JOINT RightHandMiddle2
                    {
                      OFFSET -6.180828 -0.258836 -1.000895
                      CHANNELS 3 Zrotation Yrotation Xrotation
                      JOINT RightHandMiddle3
                      {
                        OFFSET -4.348901 0.0 -0.0
                        CHANNELS 3 Zrotation Yrotation Xrotation
                        JOINT RightHandMiddle4
                        {
                          OFFSET -3.00024 -4e-06 -2e-06
                          CHANNELS 3 Zrotation Yrotation Xrotation
                          JOINT RightHandMiddleEnd
                          {
                            OFFSET -2.30252 -0.29437 -0.031706
                            CHANNELS 3 Zrotation Yrotation Xrotation
                          }
                        }
                      }
                    }
                  }
                  JOINT RightHandRing1
                  {
                    OFFSET -2.88569 -0.067952 -0.308858
                    CHANNELS 3 Zrotation Yrotation Xrotation
                    JOINT RightHandRing2
                    {
                      OFFSET -5.854198 -0.48613 -1.373731
                      CHANNELS 3 Zrotation Yrotation Xrotation
                      JOINT RightHandRing3
                      {
                        OFFSET -4.33881 -4e-06 -0.0
                        CHANNELS 3 Zrotation Yrotation Xrotation
                        JOINT RightHandRing4
                        {
                          OFFSET -2.654903 -4e-06 4e-06
                          CHANNELS 3 Zrotation Yrotation Xrotation
                          JOINT RightHandRingEnd
                          {
                            OFFSET -1.933568 0.077527 -5.2e-05
                            CHANNELS 3 Zrotation Yrotation Xrotation
                          }
                        }
                      }
                    }
                  }
                  JOINT RightHandPinky1
                  {
                    OFFSET -2.866425 -0.342796 -1.584145
                    CHANNELS 3 Zrotation Yrotation Xrotation
                    JOINT RightHandPinky2
                    {
                      OFFSET -5.091371 -1.332055 -1.772385
                      CHANNELS 3 Zrotation Yrotation Xrotation
                      JOINT RightHandPinky3
                      {
                        OFFSET -3.062664 -4e-06 1e-06
                        CHANNELS 3 Zrotation Yrotation Xrotation
                        JOINT RightHandPinky4
                        {
                          OFFSET -1.546529 4e-06 -2e-06
                          CHANNELS 3 Zrotation Yrotation Xrotation
                          JOINT RightHandPinkyEnd
                          {
                            OFFSET -1.945119 -0.157718 0.057211
                            CHANNELS 3 Zrotation Yrotation Xrotation
                          }
                        }
                      }
                    }
                  }
                }
              }
            }
          }
        }
      }
    }
    JOINT LeftLeg
    {
      OFFSET 10.043214 -8.434526 2.595655
      CHANNELS 3 Zrotation Yrotation Xrotation
      JOINT LeftShin
      {
        OFFSET -1e-06 -43.221752 -0.802913
        CHANNELS 3 Zrotation Yrotation Xrotation
        JOINT LeftFoot
        {
          OFFSET 1e-06 -42.155094 -3.481523
          CHANNELS 3 Zrotation Yrotation Xrotation
          JOINT LeftToeBase
          {
            OFFSET 0.0 -5.059472 13.231529
            CHANNELS 3 Zrotation Yrotation Xrotation
            JOINT LeftToeEnd
            {
              OFFSET -0.009607 -1.647619 6.513017
              CHANNELS 3 Zrotation Yrotation Xrotation
            }
          }
        }
      }
    }
    JOINT RightLeg
    {
      OFFSET -10.047278 -8.29526 2.620317
      CHANNELS 3 Zrotation Yrotation Xrotation
      JOINT RightShin
      {
        OFFSET 1e-06 -43.362206 -0.805556
        CHANNELS 3 Zrotation Yrotation Xrotation
        JOINT RightFoot
        {
          OFFSET 2e-06 -42.117393 -3.478398
          CHANNELS 3 Zrotation Yrotation Xrotation
          JOINT RightToeBase
          {
            OFFSET -0.0 -5.079609 13.284196
            CHANNELS 3 Zrotation Yrotation Xrotation
            JOINT RightToeEnd
            {
              OFFSET 0.009532 -1.634378 6.460591
              CHANNELS 3 Zrotation Yrotation Xrotation
            }
          }
        }
      }
    }
  }
}
MOTION
Frames: 4
Frame Time: 0.03333333333333333
0.0 0.0 0.0 0.0 -0.0 0.0 1.629457 99.952385 6.324962 -0.719662 -8.597259 8.477716 -1.680628 -0.230867 -3.622069 -0.759498 -0.553123 -5.770113 -3.177835 -2.809798 6.012086 5.304252 0.682701 -8.507208 0.642591 2.976314 -3.839106 5.546496 -1.812296 -1.974761 7.7e-05 -2.2e-05 6e-06 0.018197 0.134504 -0.026458 0.769766 -3.5627 -10.783248 -0.733712 3.816585 -10.722096 4.095068 -9.115484 3.808502 15.144711 -63.072193 -60.376911 0.744547 -63.545677 0.356279 40.057652 4.049502 -8.478061 -5.882108 9.861288 0.70259 -10.936875 -0.360575 7.156209 -0.0 8.774828 -2e-06 -15.889566 17.972923 5.854142 -1.844033 2.498505 -2.507278 -10.163603 4.678946 4.621109 -20.97603 -2e-06 3e-06 -21.226292 2.451697 -3.594 -0.0 -6e-06 -1e-06 -1.362682 2.240798 -0.746323 -21.334917 0.58491 3.008325 -13.821217 -2e-06 3e-06 -23.887175 -0.249076 -0.839482 -59.459686 2.515211 -1.161401 -0.294025 1.679687 0.833257 -14.218212 0.093216 1.300581 -34.212059 -0.287562 0.967171 -20.03322 0.96454 1.212843 -0.0 -0.0 -0.0 -3.440389 0.788233 0.501655 -15.928189 -3.16731 2.999709 -6.338828 -1e-06 1e-06 -18.123447 3.648186 -4.905671 -5e-06 -0.0 -2e-06 -14.223204 10.215442 -1.290308 -27.774679 45.459114 -77.968491 1.063171 45.505543 -2.631178 -8.766553 26.590303 20.986298 2.243543 -5.255037 -3.18016 14.282898 -0.826595 6.952503 -3e-06 -12.690609 -0.0 15.802867 -16.13179 2.553698 1.665669 -1.955922 -2.878301 4.7278 -4.170588 4.993925 11.020531 3e-06 -2e-06 12.109058 -3.735716 -2.866786 -1e-06 -0.0 0.0 1.291986 -1.928548 -1.49809 14.800136 0.567467 3.865608 14.242583 -1.341735 -6.660663 19.631981 0.143926 -0.648246 48.141869 -0.978996 -6.21142 0.353029 -1.511152 -0.03194 20.222801 3.684309 2.316629 18.787285 5e-06 -3e-06 10.751633 -0.479868 1.397904 0.0 1e-06 -0.0 3.27381 0.305947 -0.580113 21.486826 11.830378 2.266133 8.16293 3e-06 -3e-06 18.399092 -3.798984 -4.940579 4e-06 -0.0 -1e-06 1.752033 26.496874 -1.605359 0.053255 -0.137889 2.326476 -6.894361 8.492878 -7.718638 1.653516 -1.794358 1.206418 -0.0 1e-06 2e-06 -7.599861 -17.784784 -6.790712 -0.014933 0.179234 1.840376 12.042154 3.11397 1.036844 -1.398882 0.898508 0.769997 -0.0 0.0 -1e-06 
0.0 0.0 0.0 0.0 -0.0 0.0 1.596671 99.954834 6.420048 -0.771587 -8.733377 8.500491 -1.667036 -0.242497 -3.662064 -0.763692 -0.568546 -5.802431 -3.191284 -2.776747 6.020007 5.260384 0.685991 -8.398317 0.646571 3.015299 -3.840925 5.531417 -1.714242 -1.967887 7.7e-05 -2.2e-05 6e-06 0.019091 0.138179 -0.028932 0.767147 -3.562318 -10.793773 -0.729317 3.822683 -10.730305 4.094534 -9.028438 3.697466 15.234079 -63.13221 -60.367905 0.556648 -63.558949 0.464876 40.100376 3.975075 -8.323135 -5.882107 9.86129 0.702592 -10.936877 -0.360573 7.15621 -0.0 8.77483 -0.0 -15.893924 18.016924 5.872576 -1.844033 2.498504 -2.507278 -10.163604 4.678946 4.62111 -20.976034 -3e-06 3e-06 -21.226295 2.451698 -3.594002 1e-06 -5e-06 -1e-06 -1.362682 2.240797 -0.746324 -21.334925 0.58491 3.008324 -13.82122 -3e-06 2e-06 -23.887182 -0.24908 -0.839482 -59.521664 2.547825 -1.189863 -0.294025 1.679687 0.833256 -14.218215 0.093215 1.300581 -34.212067 -0.287567 0.967172 -20.033222 0.964537 1.212843 -1e-06 -1e-06 1e-06 -3.44039 0.788233 0.501656 -15.928192 -3.167311 2.999707 -6.338828 -0.0 0.0 -18.123457 3.648184 -4.905672 -5e-06 -0.0 -2e-06 -14.232061 10.173265 -1.232202 -27.837263 45.410294 -78.034332 1.058448 45.615971 -2.679969 -8.850241 26.618553 20.679333 2.243543 -5.255041 -3.180161 14.282899 -0.826592 6.952508 -4e-06 -12.69061 -0.0 15.774836 -16.172405 2.585613 1.665668 -1.955923 -2.878301 4.727801 -4.170588 4.993927 11.020534 5e-06 -1e-06 12.109058 -3.735716 -2.866785 -1e-06 -0.0 0.0 1.291985 -1.928551 -1.49809 14.800138 0.56747 3.86561 14.242582 -1.341735 -6.660662 19.631979 0.143928 -0.648244 48.114731 -0.997712 -6.214215 0.35303 -1.511152 -0.031941 20.222805 3.684314 2.316633 18.787287 7e-06 1e-06 10.751636 -0.479868 1.397908 1e-06 1e-06 0.0 3.273809 0.305949 -0.580111 21.48683 11.830384 2.266136 8.162931 2e-06 -1e-06 18.399096 -3.798986 -4.940578 3e-06 -0.0 -0.0 1.808534 26.548849 -1.516576 0.05547 -0.136064 2.292037 -6.935085 8.594751 -7.725863 1.653208 -1.794296 1.175051 -0.0 0.0 2e-06 -7.55726 -17.699831 -6.766729 -0.019626 0.16445 1.80907 12.034382 3.159864 1.081905 -1.401287 0.899802 0.777949 0.0 1e-06 -1e-06 
0.0 0.0 0.0 0.0 -0.0 0.0 1.569175 99.950523 6.50796 -0.819071 -8.866107 8.524679 -1.658094 -0.23921 -3.692226 -0.770222 -0.580599 -5.823874 -3.205357 -2.757469 6.012963 5.218837 0.692782 -8.306936 0.644919 3.007117 -3.844794 5.514536 -1.641594 -1.979844 7.7e-05 -2.2e-05 6e-06 0.019765 0.138221 -0.028319 0.767272 -3.563392 -10.801622 -0.72818 3.823299 -10.737525 4.136883 -8.938479 3.588336 15.312627 -63.196865 -60.280605 0.549345 -63.58456 0.377252 40.141006 3.915811 -8.172002 -5.882109 9.86129 0.70259 -10.936874 -0.360574 7.156208 0.0 8.774826 -1e-06 -15.916089 18.036964 5.885976 -1.844033 2.498506 -2.507278 -10.163603 4.678946 4.621111 -20.97603 -1e-06 3e-06 -21.226292 2.451697 -3.594001 -0.0 -5e-06 -1e-06 -1.362682 2.240798 -0.746324 -21.334921 0.584909 3.008325 -13.821219 -2e-06 3e-06 -23.887177 -0.249078 -0.839482 -59.626827 2.549807 -1.232399 -0.294025 1.679688 0.833256 -14.218214 0.093215 1.300581 -34.212063 -0.287564 0.967171 -20.033222 0.964538 1.212844 -0.0 1e-06 0.0 -3.440389 0.788233 0.501655 -15.928192 -3.16731 2.99971 -6.338827 0.0 1e-06 -18.123453 3.648184 -4.905671 -5e-06 -0.0 -2e-06 -14.251546 10.14062 -1.237642 -27.775244 45.398811 -78.018394 1.109852 45.797729 -2.690543 -8.870149 26.636368 20.53013 2.243541 -5.255037 -3.180158 14.282891 -0.826593 6.9525 -1e-06 -12.690601 -3e-06 15.764012 -16.201216 2.579537 1.665666 -1.955922 -2.878299 4.727796 -4.170588 4.993925 11.020527 4e-06 -2e-06 12.109049 -3.735714 -2.866785 -1e-06 -0.0 0.0 1.291986 -1.928549 -1.49809 14.800122 0.567469 3.865607 14.242568 -1.341735 -6.660657 19.631968 0.143927 -0.648244 48.091156 -1.01098 -6.237144 0.353028 -1.511152 -0.03194 20.222792 3.684313 2.31663 18.78727 5e-06 -0.0 10.751627 -0.479867 1.397906 0.0 1e-06 -0.0 3.273806 0.305947 -0.580112 21.486813 11.830376 2.266134 8.162926 3e-06 -1e-06 18.399078 -3.798982 -4.940575 3e-06 -0.0 -0.0 1.85426 26.639652 -1.43472 0.057488 -0.140168 2.244881 -6.981838 8.697309 -7.756595 1.65062 -1.799226 1.14339 -0.0 1e-06 2e-06 -7.515594 -17.618305 -6.75808 -0.020722 0.161869 1.787543 12.02026 3.212552 1.090095 -1.402995 0.900453 0.786422 0.0 0.0 -1e-06 
0.0 0.0 0.0 0.0 -0.0 0.0 1.559417 99.939743 6.575811 -0.867288 -8.992212 8.556605 -1.653696 -0.222986 -3.719574 -0.776026 -0.589737 -5.83524 -3.225161 -2.74711 5.996917 5.181757 0.701785 -8.217858 0.623787 2.962998 -3.846151 5.496265 -1.606541 -1.98201 7.7e-05 -2.2e-05 6e-06 0.01955 0.136005 -0.023523 0.767516 -3.564853 -10.801819 -0.729034 3.820127 -10.737505 4.202415 -8.874787 3.483239 15.414573 -63.237076 -60.091396 0.734713 -63.582504 0.134504 40.192139 3.890568 -8.008784 -5.882109 9.861292 0.702589 -10.936873 -0.360573 7.156208 -2e-06 8.77483 -2e-06 -15.948507 18.0389 5.885761 -1.844033 2.498507 -2.507279 -10.163602 4.678949 4.621109 -20.976028 3e-06 0.0 -21.226292 2.451699 -3.594005 1e-06 -5e-06 -1e-06 -1.362682 2.240801 -0.746324 -21.334917 0.584912 3.008324 -13.821217 -0.0 2e-06 -23.887175 -0.249075 -0.839487 -59.733974 2.524812 -1.266856 -0.294025 1.679689 0.833255 -14.218212 0.093218 1.300581 -34.212051 -0.28756 0.967166 -20.033218 0.964538 1.212841 -1e-06 -0.0 0.0 -3.440389 0.788234 0.501655 -15.928189 -3.167309 2.999708 -6.338828 -1e-06 0.0 -18.123451 3.648186 -4.905675 -5e-06 -0.0 -2e-06 -14.272102 10.117085 -1.280944 -27.644924 45.39222 -77.921661 1.216297 45.969543 -2.674557 -8.893817 26.690741 20.3424 2.243543 -5.25504 -3.18016 14.282898 -0.826591 6.952505 -3e-06 -12.690609 -1e-06 15.763486 -16.202726 2.551319 1.665665 -1.955922 -2.8783 4.7278 -4.170588 4.993925 11.020536 5e-06 -3e-06 12.10906 -3.735716 -2.866788 -1e-06 0.0 0.0 1.291986 -1.92855 -1.498091 14.80014 0.567474 3.865609 14.242582 -1.341735 -6.660663 19.631981 0.14393 -0.648247 48.081333 -1.013175 -6.257472 0.35303 -1.51115 -0.031941 20.222807 3.684316 2.316629 18.787285 9e-06 -3e-06 10.751634 -0.479865 1.397906 0.0 -0.0 0.0 3.273809 0.305947 -0.580111 21.48683 11.830383 2.266133 8.16293 5e-06 -2e-06 18.399092 -3.79898 -4.940579 3e-06 -0.0 -0.0 1.892987 26.764452 -1.370347 0.056462 -0.143683 2.187631 -7.01903 8.788961 -7.813543 1.646626 -1.806314 1.120718 -0.0 1e-06 2e-06 -7.464629 -17.520124 -6.768077 -0.019434 0.164104 1.768829 11.989052 3.219634 1.059241 -1.403966 0.9019 0.787315 -0.0 0.0 -1e-06 
